<svg xmlns="http://www.w3.org/2000/svg" viewBox="0 0 81.87 79.15"><defs><style>.cls-1{fill:#86b7d9;fill-rule:evenodd;}</style></defs><g id="Layer_2" data-name="Layer 2"><g id="Layer_1-2" data-name="Layer 1"><path class="cls-1" d="M79.15,79.15H37.78a2.73,2.73,0,0,1-2.73-2.73V64.3a2.72,2.72,0,0,1,2.73-2.72H79.15a2.72,2.72,0,0,1,2.72,2.72V76.42A2.73,2.73,0,0,1,79.15,79.15Zm0-32.24H37.78a2.73,2.73,0,0,1-2.73-2.73V32.07a2.73,2.73,0,0,1,2.73-2.73H79.15a2.72,2.72,0,0,1,2.72,2.73V44.18A2.72,2.72,0,0,1,79.15,46.91Zm0-29.34H37.78a2.73,2.73,0,0,1-2.73-2.73V2.73A2.73,2.73,0,0,1,37.78,0H79.15a2.72,2.72,0,0,1,2.72,2.73V14.84A2.72,2.72,0,0,1,79.15,17.57ZM14.84,79.15H2.73A2.73,2.73,0,0,1,0,76.42V64.3a2.72,2.72,0,0,1,2.73-2.72H14.84a2.72,2.72,0,0,1,2.73,2.72V76.42A2.73,2.73,0,0,1,14.84,79.15Zm0-32.24H2.73A2.73,2.73,0,0,1,0,44.18V32.07a2.73,2.73,0,0,1,2.73-2.73H14.84a2.73,2.73,0,0,1,2.73,2.73V44.18A2.73,2.73,0,0,1,14.84,46.91Zm0-29.34H2.73A2.73,2.73,0,0,1,0,14.84V2.73A2.73,2.73,0,0,1,2.73,0H14.84a2.73,2.73,0,0,1,2.73,2.73V14.84A2.73,2.73,0,0,1,14.84,17.57Z"/></g></g></svg>