<svg id="Layer_1" data-name="Layer 1" xmlns="http://www.w3.org/2000/svg" viewBox="0 0 48.24 36.53">
  <defs>
    <style>
      .cls-1 {
        fill: #a3a3a6;
      }

      .cls-2 {
        fill: #90b5d5;
      }
    </style>
  </defs>
  <title>Artboard 1</title>
  <path class="cls-1" d="M5.65,28.45V24.64H.87v3.81H0V20.13H.87v3.76H5.65V20.13h.87v8.32m8.16,0-1-2.33H10.21l-.94,2.33H8.41L11.86,20h.27l3.44,8.49Zm-2.24-5.61c-.14-.38-.31-.83-.44-1.28h0c-.13.44-.31.9-.46,1.28l-1,2.56h2.92l-1-2.56ZM20,28.45H17.46V20.13h2a2.1,2.1,0,0,1,2.23,2.06,1.67,1.67,0,0,1-.91,1.55A2.33,2.33,0,0,1,22.6,26,2.49,2.49,0,0,1,20,28.45m-.6-7.57h-1V23.5h1.08a1.31,1.31,0,1,0,0-2.61m.38,3.36H18.34v3.44h1.47A1.76,1.76,0,0,0,21.72,26a1.78,1.78,0,0,0-2-1.72m5.17-4.12h.87v8.32h-.87Zm6.47.75v7.57h-.87V20.88H27.67v-.76h6.6v.75m6.38,7.57-1-2.33H36.17l-.94,2.33h-.86L37.82,20h.27l3.44,8.49h-.89ZM38.4,22.84c-.14-.38-.31-.83-.44-1.28h0c-.13.44-.31.9-.46,1.28l-1,2.56h2.92l-1-2.56Zm7-2v7.57h-.87V20.88H41.64v-.76h6.6v.75M8.36,36.44V31h2.82v.49H8.93v2h1.85V34H8.93v2h2.55v.49m2.43.1a2.53,2.53,0,0,1-1.43-.41l-.16-.67a2.61,2.61,0,0,0,1.62.58,1,1,0,0,0,1.15-1c0-.56-.34-.91-1.09-1.17-1-.34-1.43-.87-1.43-1.57a1.42,1.42,0,0,1,1.6-1.36,2.16,2.16,0,0,1,1.15.31l-.12.47a2,2,0,0,0-1-.31.93.93,0,0,0-1,.86c0,.43.31.76,1,1,1,.37,1.55.82,1.55,1.69a1.55,1.55,0,0,1-1.75,1.54M21,31.8a2.76,2.76,0,0,0-1.42-.37,2.3,2.3,0,1,0,0,4.6,2.89,2.89,0,0,0,1.52-.36l-.14.58a2.91,2.91,0,0,1-1.45.29,2.8,2.8,0,1,1,0-5.6,3.18,3.18,0,0,1,1.59.37l-.11.5Zm4.88,4.64-.62-1.52H23l-.61,1.52h-.56L24,30.92h.18l2.24,5.52Zm-1.46-3.65c-.09-.25-.2-.54-.29-.83h0c-.08.29-.2.58-.3.83l-.65,1.66h1.9ZM29.09,34h-1v2.48h-.57V31h1.51a1.47,1.47,0,1,1,0,2.93M29,31.52h-.85v1.95H29a1,1,0,0,0,1.07-1,1,1,0,0,0-1.1-1m2.84,4.92V31h2.82v.49H32.37v2h1.85V34H32.37v2h2.55v.49m2.43.1a2.53,2.53,0,0,1-1.43-.41l-.16-.67a2.61,2.61,0,0,0,1.62.58,1,1,0,0,0,1.15-1c0-.56-.34-.91-1.1-1.17C36.47,33.53,36,33,36,32.3a1.42,1.42,0,0,1,1.6-1.36,2.16,2.16,0,0,1,1.15.31l-.12.47a2,2,0,0,0-1-.31.93.93,0,0,0-1,.86c0,.43.31.76,1,1,1,.37,1.55.82,1.55,1.69a1.55,1.55,0,0,1-1.75,1.54M27,1.44A16.49,16.49,0,0,0,26,3.9a34.87,34.87,0,0,0-3.31,2.25l.52-3.22S24.64.59,24.67.58A22.91,22.91,0,0,1,27,1.44m4.2.33.59-.93L33.32.18l1.6.77-.38.55a18.6,18.6,0,0,0-3.39.27M19,9.72a12.53,12.53,0,0,0-1.78,2.88c-.24.57-1.44-3.61.55-7l1.21.57a15.1,15.1,0,0,0,0,3.55M22.63,3.5a23.22,23.22,0,0,0-.37,3,22.86,22.86,0,0,0-3,2.95s0-1.82.09-3.48c0-.23,0-.45.07-.67l1.39-2.48Zm-5.31,10-1.69,3.58L15,16.28l2-3.32M27.46,1.44l-.89,2.15a16.26,16.26,0,0,1,4-1.7c.11-.21.48-.86.65-1.12L29,0,27.46,1.44Z"/>
  <path class="cls-2" d="M17.55,13.5c.11.31.65.43,1,.52a9.69,9.69,0,0,0,1.91.15,8.64,8.64,0,0,0,4.83-1.47,10.58,10.58,0,0,0,3-3.36q.3-.5.57-1c1.43-2.7,3.64-5.36,6.74-6.11A6.21,6.21,0,0,1,38,2.08a13,13,0,0,0-3.42-.41A12.64,12.64,0,0,0,29,2.8a27.93,27.93,0,0,0-6.12,3.8,23.28,23.28,0,0,0-3.48,3.46,11.47,11.47,0,0,0-1.79,3,.61.61,0,0,0,0,.4"/>
</svg>
