<svg xmlns="http://www.w3.org/2000/svg" viewBox="0 0 162.45 127.86"><defs><style>.cls-1{fill:#fff;}</style></defs><g id="Layer_2" data-name="Layer 2"><g id="Layer_1-2" data-name="Layer 1"><path class="cls-1" d="M157.05,19.92a17.46,17.46,0,0,0-12.82-5.4H118.6v-.31a13.89,13.89,0,0,0-4.17-10,14.13,14.13,0,0,0-10-4.17H58.06A14.24,14.24,0,0,0,43.7,14.21v.31H18.22A17.48,17.48,0,0,0,5.4,19.92,18.37,18.37,0,0,0,0,32.74v76.9a17.52,17.52,0,0,0,5.4,12.82,18.39,18.39,0,0,0,12.82,5.4h126a17.5,17.5,0,0,0,12.82-5.4,18.39,18.39,0,0,0,5.4-12.82V32.74A17.49,17.49,0,0,0,157.05,19.92Zm-2.63,89.72h-.15a10,10,0,0,1-10,10h-126a10,10,0,0,1-10-10V32.74a10,10,0,0,1,10-10H48a4.15,4.15,0,0,0,4.17-4.17V14.05a6.06,6.06,0,0,1,1.7-4.32A6.08,6.08,0,0,1,58.22,8h46.17a6.06,6.06,0,0,1,4.32,1.7,6.06,6.06,0,0,1,1.7,4.32v4.48a4.15,4.15,0,0,0,4.17,4.17h29.8a10,10,0,0,1,10,10Z"/><path class="cls-1" d="M81.23,33.2a38,38,0,1,0,26.86,11.12A38,38,0,0,0,81.23,33.2Zm21,59.14a29.83,29.83,0,0,1-42,0,29.51,29.51,0,0,1-8.64-21,30.19,30.19,0,0,1,8.64-21,29.56,29.56,0,0,1,21-8.65,30.2,30.2,0,0,1,21,8.65,29.55,29.55,0,0,1,8.64,21A28.87,28.87,0,0,1,102.23,92.34Z"/><circle class="cls-1" cx="136.2" cy="40.61" r="7.57"/></g></g></svg>