<svg xmlns="http://www.w3.org/2000/svg" viewBox="0 0 81.12 81.12"><defs><style>.cls-1{fill:#86b7d9;fill-rule:evenodd;}</style></defs><g id="Layer_2" data-name="Layer 2"><g id="Layer_1-2" data-name="Layer 1"><path class="cls-1" d="M71.39,81.12H57.9a9.73,9.73,0,0,1-9.73-9.73V57.9a9.73,9.73,0,0,1,9.73-9.73H71.39a9.73,9.73,0,0,1,9.73,9.73V71.39A9.72,9.72,0,0,1,71.39,81.12Zm0-48.16H57.9a9.74,9.74,0,0,1-9.73-9.74V9.73A9.73,9.73,0,0,1,57.9,0H71.39a9.73,9.73,0,0,1,9.73,9.73V23.22A9.73,9.73,0,0,1,71.39,33ZM23.22,81.12H9.73A9.73,9.73,0,0,1,0,71.39V57.9a9.73,9.73,0,0,1,9.73-9.73H23.22A9.74,9.74,0,0,1,33,57.9V71.39A9.73,9.73,0,0,1,23.22,81.12Zm0-48.16H9.73A9.74,9.74,0,0,1,0,23.22V9.73A9.73,9.73,0,0,1,9.73,0H23.22A9.74,9.74,0,0,1,33,9.73V23.22A9.74,9.74,0,0,1,23.22,33Z"/></g></g></svg>