<svg id="SvgjsSvg1026" width="288" height="288" xmlns="http://www.w3.org/2000/svg" version="1.1" xmlns:xlink="http://www.w3.org/1999/xlink" xmlns:svgjs="http://svgjs.com/svgjs"><defs id="SvgjsDefs1027"></defs><g id="SvgjsG1028"><svg xmlns="http://www.w3.org/2000/svg" viewBox="0 0 165.94 126.4" width="288" height="288"><g data-name="Layer 2" fill="#000000" class="color000 svgShape"><path fill="#191919" d="M151.36,0H14.58A14.61,14.61,0,0,0,0,14.58v97.24A14.6,14.6,0,0,0,14.58,126.4H151.36a14.6,14.6,0,0,0,14.58-14.58V14.58A14.6,14.6,0,0,0,151.36,0Zm-2,9.72L83.28,75.79,16.65,9.72ZM9.72,109.8V16.55L56.55,63Zm6.88,6.88L63.45,69.82,79.87,86.1a4.86,4.86,0,0,0,6.86,0l16-16,46.6,46.6Zm139.62-6.88-46.6-46.6,46.6-46.6Z" data-name="Layer 1" class="colorfff svgShape"></path></g></svg></g></svg>