<svg xmlns="http://www.w3.org/2000/svg" viewBox="0 0 121.81 125.18"><defs><style>.cls-1{fill:#86b7d9;}</style></defs><g id="Layer_2" data-name="Layer 2"><g id="Layer_1-2" data-name="Layer 1"><path class="cls-1" d="M86.05,125.18H35.76A35.8,35.8,0,0,1,0,89.43V35.76A35.8,35.8,0,0,1,35.76,0H86.05a35.8,35.8,0,0,1,35.76,35.76V89.43A35.8,35.8,0,0,1,86.05,125.18ZM35.76,9.17A26.62,26.62,0,0,0,9.17,35.76V89.43A26.62,26.62,0,0,0,35.76,116H86.05a26.62,26.62,0,0,0,26.59-26.59V35.76A26.62,26.62,0,0,0,86.05,9.17Z"/><path class="cls-1" d="M60.91,95.68A33.37,33.37,0,0,1,37.07,39.07a31.79,31.79,0,0,1,23.06-9.92h.94c10.35.3,18.95,3.8,24.85,10.1,5.6,6,8.45,14,8.24,23.28a34.06,34.06,0,0,1-9.85,23.38A32.74,32.74,0,0,1,60.91,95.68Zm-.78-55.32a20.7,20.7,0,0,0-15,6.48,22.37,22.37,0,0,0-6.29,15.58,22.08,22.08,0,0,0,22.06,22c12.09,0,21.78-9.74,22-22.17.14-6.28-1.67-11.59-5.22-15.38-3.81-4.08-9.69-6.34-17-6.56Z"/><path class="cls-1" d="M102.73,28.22A7.76,7.76,0,1,1,95,20.47,7.76,7.76,0,0,1,102.73,28.22Z"/></g></g></svg>