<svg xmlns="http://www.w3.org/2000/svg" viewBox="0 0 139.15 113.08"><defs><style>.cls-1{fill:#86b7d9;}</style></defs><g id="Layer_2" data-name="Layer 2"><g id="Layer_1-2" data-name="Layer 1"><path class="cls-1" d="M124.9,28.16c.06,1.23.09,2.46.09,3.7,0,37.72-28.72,81.22-81.23,81.22A80.9,80.9,0,0,1,0,100.26a61.34,61.34,0,0,0,6.81.39A57.27,57.27,0,0,0,42.26,88.44,28.6,28.6,0,0,1,15.6,68.6a27.94,27.94,0,0,0,5.37.52,28.48,28.48,0,0,0,7.51-1,28.59,28.59,0,0,1-22.89-28v-.36a28.31,28.31,0,0,0,12.93,3.57A28.59,28.59,0,0,1,9.69,5.22,81,81,0,0,0,68.53,35.05,28.56,28.56,0,0,1,117.17,9a57.3,57.3,0,0,0,18.14-6.92,28.66,28.66,0,0,1-12.56,15.79,56.76,56.76,0,0,0,16.4-4.5A57.88,57.88,0,0,1,124.9,28.16Z"/></g></g></svg>