<svg xmlns="http://www.w3.org/2000/svg" viewBox="0 0 206.66 131.31"><defs><style>.cls-1{fill:#50545b;stroke:#737590;stroke-miterlimit:10;stroke-width:0.25px;}</style></defs><g id="Layer_2" data-name="Layer 2"><g id="Layer_1-2" data-name="Layer 1"><path class="cls-1" d="M178.64,57.79a23.56,23.56,0,1,0-27,0A41,41,0,0,0,137.68,66a52.77,52.77,0,0,0-19.12-10.41,29.86,29.86,0,1,0-30.87,0A53.07,53.07,0,0,0,68.78,65.84a41.24,41.24,0,0,0-13.77-8,23.57,23.57,0,1,0-27,0A41.37,41.37,0,0,0,.12,96.92v2.69a.19.19,0,0,0,.17.17h50a54,54,0,0,0-.45,6.9v2.78a21.71,21.71,0,0,0,21.72,21.72h63.31a21.71,21.71,0,0,0,21.72-21.72v-2.78a55.93,55.93,0,0,0-.44-6.9h50.27a.18.18,0,0,0,.16-.17V96.92A41.53,41.53,0,0,0,178.64,57.79ZM148.09,38.47a17,17,0,1,1,17.36,17h-.66A17,17,0,0,1,148.09,38.47ZM79.72,30a23.32,23.32,0,1,1,24.67,23.28H101.7A23.36,23.36,0,0,1,79.72,30ZM24.34,38.47a17,17,0,1,1,17.36,17h-.65A17,17,0,0,1,24.34,38.47Zm27,54.73H6.74A34.89,34.89,0,0,1,41.13,62h.49a34.53,34.53,0,0,1,22.26,8.29A53.66,53.66,0,0,0,51.38,93.2Zm98.55,16.26a15.21,15.21,0,0,1-15.19,15.19H71.43a15.21,15.21,0,0,1-15.19-15.19v-2.78A46.93,46.93,0,0,1,101.7,59.83c.44,0,.93,0,1.38,0s.94,0,1.39,0a46.93,46.93,0,0,1,45.46,46.85Zm4.86-16.26a53.52,53.52,0,0,0-12.38-22.71A34.75,34.75,0,0,1,164.88,62h.49A34.88,34.88,0,0,1,199.75,93.2Z"/></g></g></svg>